<svg width="318" height="262" viewBox="0 0 318 262" fill="none" xmlns="http://www.w3.org/2000/svg">
<mask id="mask0_13_6" style="mask-type:alpha" maskUnits="userSpaceOnUse" x="0" y="0" width="329" height="262">
<path fill-rule="evenodd" clip-rule="evenodd" d="M237.631 204.424L282.321 256.119H328.438V0.0751953H0.562378V226.374H67.2784C86.1605 248.195 114.057 262 145.178 262C185.756 262 220.852 238.53 237.631 204.424Z" fill="#C4C4C4"/>
</mask>
<g mask="url(#mask0_13_6)">
<path d="M210.706 125.701C210.706 125.701 239.647 130.355 261.39 137.356C283.132 144.351 302.1 156.235 302.1 156.235C302.1 156.235 300.357 195.515 287.054 220.525C271.447 210.046 232.901 189.035 214.368 182.497C219.137 192.163 226.591 211.229 230.567 228.742C221.061 228.589 208.33 230.979 208.33 230.979L190.62 170.777L210.706 125.701Z" fill="#F8CC46"/>
<path d="M256.338 173.633C271.229 190.639 282.506 209.403 287.852 218.966C287.589 219.494 287.325 220.015 287.048 220.531C271.441 210.053 232.895 189.041 214.363 182.503C219.131 192.169 226.585 211.235 230.561 228.749C221.055 228.595 208.324 230.985 208.324 230.985L190.614 170.783L208.429 130.806C214.42 135.136 238.067 152.764 256.338 173.633Z" fill="#ECA539"/>
<path d="M210.706 125.701C210.706 125.701 239.647 130.355 261.39 137.356C283.132 144.351 302.1 156.235 302.1 156.235C302.1 156.235 300.357 195.515 287.054 220.525C271.447 210.046 232.901 189.035 214.368 182.497C219.137 192.163 226.591 211.229 230.567 228.742C221.061 228.589 208.33 230.979 208.33 230.979L190.62 170.777L210.706 125.701Z" stroke="#333333" stroke-width="2" stroke-miterlimit="10" stroke-linecap="round" stroke-linejoin="round"/>
<path d="M203.062 181.813C203.062 181.813 202.61 195.809 204.564 207.185C206.518 218.56 209.532 229.906 217.186 242.034C224.841 254.155 229.31 259.837 229.547 267.423C233.053 264.534 237.326 262.227 238.894 263.655C240.461 265.082 239.776 266.895 239.776 266.895C239.776 266.895 241.545 265.607 242.438 266.627C243.332 267.647 243.701 269.747 242.983 272.038C244.228 271.837 244.789 273.518 243.519 277.374C242.249 281.23 237.81 292.14 226.391 303.668C214.972 315.197 204.324 323.326 197.799 319.784C195.531 318.503 195.7 315.398 195.7 315.398C195.7 315.398 194.419 316.002 190.148 315.246C185.877 314.49 165.489 308.373 152.154 307.895C138.818 307.416 120.635 307.501 101.427 313.872C101.581 316.152 100.544 321.57 91.78 317.854C83.0162 314.138 71.678 306.718 61.7574 293.766C51.8368 280.813 49.7158 272.308 51.1291 271.449C51.8309 270.941 53.0322 271.499 53.0322 271.499C53.0322 271.499 50.767 265.899 52.2979 264.953C53.8288 264.006 55.9085 266.251 55.9085 266.251C55.9085 266.251 55.6001 264.379 56.7386 263.872C57.8771 263.364 59.6521 263.775 62.8011 265.957C62.7099 262.282 62.7889 257.594 67.7559 251.115C72.7229 244.636 76.5904 242.763 80.7261 241.922C82.4359 235.834 83.4288 232.558 83.9546 228.916C83.9546 228.916 74.6838 224.059 63.141 209.133C51.5983 194.206 44.4308 181.135 41.6071 173.569C38.7897 166.002 37.0701 161.236 36.2482 160.424C35.4256 159.607 34.3846 158.126 34.5282 157.478C34.6717 156.829 36.5639 157.273 36.7075 156.624C36.8511 155.976 35.4365 153.423 35.8825 152.636C36.3285 151.849 38.6354 152.201 38.8156 151.916C38.9958 151.632 38.1732 149.178 38.6356 148.555C39.0975 147.925 41.566 148.311 42.0385 147.788C42.5111 147.265 41.1922 144.594 41.912 143.888C42.6319 143.181 48.055 144.697 48.5603 144.437C49.0594 144.177 49.3301 141.081 50.1582 140.947C50.9862 140.813 67.6124 148.278 76.6294 153.002C85.6464 157.726 203.062 181.813 203.062 181.813Z" fill="#F8CC46" stroke="#333333" stroke-width="1.2" stroke-miterlimit="10" stroke-linecap="round" stroke-linejoin="round"/>
<path d="M64.2319 280.245C69.6835 276.634 82.812 287.888 87.8956 291.815C92.9792 295.743 92.1589 293.815 109.096 288.205C126.039 282.589 149.347 287.854 164.718 293.917C180.09 299.98 198.957 304.056 198.957 304.056C198.957 304.056 202.996 298.101 208.208 292.238C213.421 286.374 225.159 277.267 231.431 282.001C235.929 285.391 232.707 294.371 230.516 299.195C229.253 300.666 227.879 302.168 226.385 303.675C214.967 315.21 204.319 323.332 197.793 319.791C195.526 318.51 195.694 315.405 195.694 315.405C195.694 315.405 194.414 316.009 190.143 315.253C185.872 314.497 165.483 308.38 152.148 307.901C138.812 307.423 120.63 307.508 101.422 313.879C101.575 316.159 100.538 321.577 91.7744 317.861C84.2 314.647 74.6952 308.659 65.8438 298.725C60.9232 289.309 59.3437 283.482 64.2319 280.245Z" fill="#ECA539"/>
<path d="M85.1514 220.557C85.1514 220.557 73.2047 218.474 59.6807 204.546C65.8399 212.499 73.6763 223.036 83.3229 228.547C84.1628 225.196 85.1514 220.557 85.1514 220.557Z" fill="#ECA539"/>
<path d="M203.062 181.813C203.062 181.813 202.61 195.809 204.564 207.185C206.518 218.561 209.532 229.906 217.186 242.034C224.841 254.155 229.31 259.837 229.547 267.423C233.053 264.534 237.326 262.227 238.894 263.655C240.461 265.082 239.776 266.895 239.776 266.895C239.776 266.895 241.545 265.607 242.438 266.627C243.332 267.647 243.701 269.747 242.983 272.038C244.228 271.837 244.789 273.518 243.519 277.374C242.249 281.23 237.81 292.14 226.391 303.668C214.972 315.197 204.324 323.326 197.799 319.784C195.531 318.503 195.7 315.398 195.7 315.398C195.7 315.398 194.419 316.002 190.148 315.246C185.877 314.49 165.489 308.373 152.154 307.895C138.818 307.416 120.635 307.501 101.427 313.872C101.581 316.152 100.544 321.57 91.78 317.854C83.0162 314.138 71.678 306.718 61.7574 293.766C51.8368 280.813 49.7158 272.308 51.1291 271.449C51.8309 270.941 53.0322 271.499 53.0322 271.499C53.0322 271.499 50.767 265.899 52.2979 264.953C53.8288 264.006 55.9085 266.251 55.9085 266.251C55.9085 266.251 55.6001 264.379 56.7386 263.872C57.8771 263.364 59.6521 263.775 62.8011 265.957C62.7099 262.282 62.7889 257.594 67.7559 251.115C72.7229 244.636 76.5904 242.763 80.7261 241.922C82.4359 235.834 83.4288 232.558 83.9546 228.916C83.9546 228.916 74.6838 224.059 63.141 209.133C51.5983 194.206 44.4308 181.135 41.6071 173.569C38.7897 166.002 37.0701 161.236 36.2482 160.424C35.4257 159.607 34.3846 158.126 34.5282 157.478C34.6717 156.829 36.5639 157.273 36.7075 156.624C36.8511 155.976 35.4365 153.423 35.8825 152.636C36.3285 151.849 38.6354 152.201 38.8156 151.916C38.9958 151.632 38.1732 149.178 38.6356 148.555C39.0975 147.925 41.566 148.311 42.0385 147.788C42.5111 147.265 41.1922 144.594 41.912 143.888C42.6319 143.181 48.055 144.697 48.5603 144.437C49.0594 144.177 49.3301 141.081 50.1582 140.947C50.9862 140.813 67.6124 148.278 76.6294 153.002C85.6464 157.726 203.062 181.813 203.062 181.813Z" stroke="#333333" stroke-width="2" stroke-miterlimit="10" stroke-linecap="round" stroke-linejoin="round"/>
<path d="M205.497 180.852C215.621 169.846 214.034 163.506 212.068 153.4C210.103 143.293 212.21 134.363 212.438 125.621C212.666 116.879 211.89 108.663 209.677 103.388C255.965 119.023 289.801 103.147 301.761 96.2376C242.302 58.674 190.783 83.253 190.783 83.253C190.783 83.253 169.109 64.349 130.665 70.5935C147.021 57.0591 166.467 40.728 176.044 3.83654C154.708 7.67551 105.906 32.0256 94.63 87.6926C92.0627 91.5461 88.0589 93.6356 86.2742 107.347C84.4896 121.058 81.5394 134.189 77.8965 142.006C74.2535 149.823 71.2841 161.694 91.2017 183.578C105.122 198.239 110.761 201.902 110.761 201.902" fill="#F8CC46"/>
<path d="M149.674 133.835C149.667 134.704 148.928 135.85 147.058 135.759C145.189 135.668 144.475 134.041 144.911 133.28C145.347 132.52 149.689 132.407 149.674 133.835Z" fill="#333333"/>
<path d="M181.53 125.007C175.55 127.765 174.849 137.968 178.768 142.33C182.686 146.691 190.494 147.25 194.531 143.357C198.569 139.463 199.11 130.69 194.095 126.438C189.08 122.187 183.949 123.889 181.53 125.007Z" fill="#333333"/>
<path d="M181.954 125.636C180.811 126.22 178.597 129.62 180.348 132.063C182.1 134.505 185.372 134.449 187.036 133.254C188.7 132.06 189.307 129.101 187.792 126.996C186.277 124.891 183.495 124.847 181.954 125.636Z" fill="white"/>
<path d="M114.156 116.697C111.226 114.297 103.976 113.492 99.3269 118.664C94.6777 123.837 95.81 131.383 100.467 134.719C105.124 138.055 113.922 135.319 115.956 130.942C117.996 126.558 117.776 119.662 114.156 116.697Z" fill="#333333"/>
<path d="M113.688 118.076C112.173 116.985 109.195 117.063 107.931 118.655C106.667 120.246 106.751 123.846 108.586 125.171C110.422 126.495 113.686 125.926 114.826 124.302C115.966 122.678 115.863 119.639 113.688 118.076Z" fill="white"/>
<path d="M176.044 3.83594C172.865 16.0831 168.592 26.0562 163.713 34.4224C161.617 32.3314 156.41 31.8342 141.855 34.0147C129.02 35.9334 115.853 45.5581 109.957 50.3489C129.49 20.7247 160.27 6.67161 176.044 3.83594Z" fill="#333333"/>
<path d="M301.761 96.2431C291.93 101.924 267.314 113.658 233.156 108.971C238.939 107.653 250.064 104.455 258.696 97.9874C268.88 90.3494 271.505 84.7462 270.319 81.3842C280.364 84.6225 290.93 89.3998 301.761 96.2431Z" fill="#333333"/>
<path d="M102.95 81.1438C102.95 81.1438 102.789 81.1853 102.516 81.3015C102.235 81.3995 101.855 81.5836 101.403 81.8066C100.959 82.0479 100.435 82.3161 99.9144 82.6729C99.3853 83.0114 98.8425 83.4021 98.3085 83.8173C98.0443 84.0214 97.7738 84.2261 97.5153 84.4234C97.258 84.6331 97.0138 84.8479 96.7816 85.0552C96.3108 85.4703 95.8688 85.8571 95.5196 86.222C94.8135 86.9398 94.3566 87.4296 94.3566 87.4296C94.2139 87.5835 94.2253 87.8233 94.3727 87.967C94.5125 88.0988 94.7342 88.1019 94.8738 87.98L94.8914 87.9656C94.8914 87.9656 95.3922 87.5347 96.1165 86.8722C96.3024 86.7076 96.4852 86.5117 96.7011 86.3314C96.9171 86.1512 97.1444 85.9571 97.3772 85.7562C97.6107 85.5615 97.8549 85.3467 98.0928 85.1325C98.3444 84.9297 98.5955 84.7205 98.8534 84.517C99.3549 84.0925 99.8858 83.7093 100.373 83.3306C100.853 82.9463 101.326 82.6196 101.706 82.3025C102.107 82.0148 102.436 81.7598 102.665 81.5846C102.9 81.4087 103.029 81.307 103.029 81.307C103.071 81.2775 103.077 81.2134 103.047 81.172C103.032 81.1482 102.993 81.1331 102.95 81.1438Z" fill="#333333" stroke="#333333"/>
<path d="M163.932 156.814C163.932 156.814 161.583 166.486 156.065 176.869C150.548 187.253 145.334 192.85 141.356 192.616C137.378 192.382 131.02 182.635 129.189 168.393C127.364 154.151 127.586 152.461 127.586 152.461C127.586 152.461 133.162 152.851 137.759 150.562C142.357 148.274 145.754 145.117 152.137 149.573C158.508 154.03 160.291 156.787 163.932 156.814Z" fill="#6C4C59" stroke="#333333" stroke-width="1.2" stroke-miterlimit="10" stroke-linecap="round" stroke-linejoin="round"/>
<path d="M129.128 167.917C131.385 164.811 136.243 160.023 144.523 160.433C153.883 160.893 157.507 168.176 158.684 171.507C157.902 173.24 157.033 175.04 156.065 176.868C150.542 187.253 145.334 192.849 141.356 192.615C137.378 192.381 131.02 182.634 129.189 168.392C129.166 168.23 129.151 168.079 129.128 167.917Z" fill="#F26981" stroke="#333333" stroke-width="1.2" stroke-miterlimit="10" stroke-linecap="round" stroke-linejoin="round"/>
<path d="M169.046 155.139C169.046 155.139 168.969 155.185 168.837 155.255C168.711 155.331 168.517 155.414 168.288 155.52C168.058 155.632 167.783 155.729 167.491 155.841C167.19 155.928 166.887 156.067 166.557 156.119C166.396 156.154 166.235 156.189 166.075 156.231C165.921 156.278 165.757 156.282 165.608 156.303C165.458 156.325 165.307 156.333 165.17 156.36C165.034 156.392 164.902 156.393 164.775 156.393C164.288 156.398 163.957 156.437 163.957 156.437L163.894 156.444C163.688 156.465 163.542 156.65 163.563 156.858C163.581 157.04 163.728 157.177 163.9 157.191C163.9 157.191 164.264 157.225 164.815 157.226C165.089 157.249 165.405 157.18 165.747 157.12C165.914 157.084 166.09 157.073 166.261 157.011C166.433 156.962 166.605 156.907 166.776 156.845C167.126 156.746 167.436 156.55 167.745 156.418C167.895 156.339 168.031 156.243 168.162 156.16C168.293 156.077 168.418 156.001 168.524 155.921C168.742 155.76 168.911 155.616 169.026 155.503C169.142 155.396 169.199 155.333 169.199 155.333L169.204 155.326C169.25 155.271 169.242 155.196 169.187 155.15C169.152 155.116 169.088 155.116 169.046 155.139Z" fill="#333333"/>
<path d="M122.275 149.8C122.275 149.8 122.315 149.878 122.425 150.026C122.528 150.174 122.68 150.362 122.873 150.583C122.966 150.694 123.091 150.796 123.21 150.917C123.335 151.025 123.457 151.165 123.607 151.27C123.906 151.481 124.21 151.736 124.563 151.91C124.9 152.117 125.259 152.284 125.606 152.401C125.777 152.466 125.942 152.532 126.105 152.585C126.263 152.646 126.423 152.661 126.566 152.698C127.147 152.81 127.531 152.854 127.531 152.854C127.735 152.878 127.923 152.726 127.946 152.521C127.966 152.341 127.855 152.181 127.697 152.121L127.645 152.101C127.645 152.101 127.304 151.983 126.784 151.845C126.653 151.807 126.512 151.79 126.373 151.721C126.234 151.659 126.083 151.611 125.925 151.551C125.767 151.491 125.604 151.444 125.445 151.371C125.292 151.291 125.132 151.212 124.966 151.14C124.631 151.009 124.338 150.804 124.049 150.636C123.895 150.557 123.771 150.455 123.643 150.373C123.52 150.284 123.386 150.208 123.289 150.123C123.076 149.954 122.891 149.821 122.78 149.718C122.662 149.622 122.592 149.553 122.592 149.553C122.514 149.472 122.388 149.472 122.307 149.55C122.244 149.613 122.234 149.703 122.267 149.782L122.275 149.8Z" fill="#333333"/>
<path d="M201.173 152.014C205.721 151.189 210.513 154.924 212.758 156.987C214.249 165.144 214.372 171.206 205.497 180.856C203.98 182.505 202.553 183.98 201.182 185.323C187.387 184.244 186.506 172.018 188.038 164.54C189.628 156.765 194.958 153.14 201.173 152.014Z" fill="#F22539" stroke="#333333" stroke-width="1.2" stroke-miterlimit="10" stroke-linecap="round" stroke-linejoin="round"/>
<path d="M76.3127 146.016C79.1613 143.072 85.0474 139.817 91.6146 143.963C100.06 149.296 101.229 162.495 97.0972 169.41C93.9997 174.598 87.3184 175.105 84.173 175.034C74.3271 161.504 74.2837 152.517 76.3127 146.016Z" fill="#F22539" stroke="#333333" stroke-width="1.2" stroke-miterlimit="10" stroke-linecap="round" stroke-linejoin="round"/>
<path d="M151.156 209.145C151.124 210.842 144.381 215.325 137.299 215.187C130.218 215.056 124.915 210.517 124.974 209.027C125.033 207.537 131.896 208.648 137.208 209.064C142.522 209.488 151.192 207.24 151.156 209.145Z" fill="#ECA539"/>
<path d="M84.3143 228.968C84.3143 228.968 84.6218 227.244 85.0833 224.661C85.2752 223.361 85.4563 221.827 85.6718 220.195C85.8678 218.558 86.0212 216.812 86.1814 215.071C86.3029 213.321 86.45 211.576 86.5445 209.936C86.6391 208.297 86.7061 206.762 86.7195 205.448C86.7329 204.134 86.7364 203.037 86.7101 202.272C86.6964 201.507 86.6647 201.066 86.6647 201.066C86.6634 200.99 86.5944 200.933 86.5255 200.94C86.4566 200.947 86.4047 200.997 86.3985 201.061C86.3985 201.061 86.3537 201.497 86.266 202.26C86.1782 203.023 86.0977 204.11 85.9696 205.416C85.8667 206.72 85.7351 208.242 85.6273 209.876C85.5196 211.511 85.3594 213.251 85.2242 214.99C85.1346 215.861 85.0508 216.726 84.9656 217.578C84.8805 218.43 84.8204 219.279 84.7245 220.088C84.5335 221.711 84.3561 223.219 84.2018 224.515C83.8305 227.115 83.5806 228.845 83.5806 228.845C83.5507 229.051 83.6906 229.247 83.8961 229.277C84.089 229.308 84.2838 229.168 84.3143 228.968Z" fill="#333333" stroke="#333333"/>
<path d="M96.6837 242.866C96.6837 242.866 96.4618 242.736 96.0507 242.549C95.6402 242.369 95.0568 242.104 94.3237 241.861C93.5962 241.61 92.729 241.355 91.7848 241.152C91.3136 241.06 90.8217 240.951 90.3218 240.887C89.8199 240.804 89.3074 240.742 88.7969 240.698C88.285 240.642 87.7663 240.643 87.2583 240.625C86.7489 240.593 86.2472 240.637 85.7667 240.641C85.2793 240.64 84.8189 240.718 84.3736 240.756C83.9282 240.795 83.5179 240.868 83.1327 240.938C82.7538 241.008 82.3986 241.063 82.0968 241.144C81.7886 241.225 81.5237 241.296 81.3082 241.356C80.8711 241.476 80.6249 241.545 80.6249 241.545C80.422 241.604 80.31 241.812 80.3615 242.009C80.4124 242.201 80.608 242.321 80.7996 242.276L80.8309 242.273C80.8309 242.273 81.0727 242.223 81.4999 242.129C81.7103 242.083 81.9703 242.025 82.2671 241.957C82.5647 241.896 82.9085 241.855 83.2756 241.792C83.6426 241.73 84.041 241.665 84.4745 241.634C84.9011 241.597 85.3502 241.533 85.8175 241.524C86.2842 241.509 86.7665 241.46 87.2614 241.474C87.7557 241.481 88.255 241.475 88.7524 241.514C89.2542 241.533 89.751 241.566 90.2378 241.625C90.729 241.664 91.2051 241.743 91.6738 241.81C92.6004 241.964 93.4707 242.124 94.1987 242.317C95.6712 242.676 96.6124 243.038 96.6124 243.038C96.665 243.058 96.7195 243.034 96.7395 242.981C96.742 242.943 96.7238 242.887 96.6837 242.866Z" fill="#333333" stroke="#333333"/>
<path d="M144.523 160.435C153.883 160.895 157.507 168.177 158.684 171.509C158.523 171.867 158.352 172.233 158.18 172.605C156.521 170.388 151.965 165.418 144.469 165.437C136.226 165.454 132.024 166.574 129.411 169.976C129.327 169.458 129.255 168.933 129.183 168.401C129.16 168.238 129.145 168.081 129.122 167.925C131.385 164.819 136.243 160.025 144.523 160.435Z" fill="#B94966"/>
<path d="M129.128 167.917C131.385 164.811 136.243 160.023 144.523 160.433C153.883 160.893 157.507 168.176 158.684 171.507C157.902 173.24 157.033 175.04 156.065 176.868C150.542 187.253 145.334 192.849 141.356 192.615C137.378 192.381 131.02 182.634 129.189 168.392C129.166 168.23 129.151 168.079 129.128 167.917Z" stroke="#333333" stroke-width="1.2" stroke-miterlimit="10" stroke-linecap="round" stroke-linejoin="round"/>
<path d="M233.156 108.972C233.156 108.972 212.053 102.357 206.423 97.7743C208.472 100.973 209.522 103.043 209.522 103.043C209.522 103.043 224.765 108.402 233.156 108.972Z" fill="#ECA539"/>
<path d="M210.021 103.227C210.021 103.227 209.746 102.569 209.307 101.599C209.206 101.356 209.048 101.099 208.894 100.829C208.74 100.559 208.579 100.271 208.409 99.9709C208.07 99.3709 207.64 98.8054 207.244 98.1985C207.049 97.8947 206.824 97.6129 206.607 97.3368C206.389 97.0606 206.172 96.7845 205.962 96.5266C205.524 96.0126 205.116 95.54 204.736 95.1597C204.368 94.7656 204.04 94.4625 203.81 94.251C203.579 94.0333 203.435 93.9272 203.435 93.9272C203.388 93.894 203.325 93.9003 203.285 93.9424C203.257 93.9769 203.256 94.034 203.285 94.0692C203.285 94.0692 203.703 94.6422 204.328 95.5051C204.649 95.9294 204.98 96.4541 205.381 96.9781C205.567 97.2512 205.76 97.5361 205.953 97.821C206.141 98.1129 206.364 98.3884 206.546 98.6872C206.916 99.284 207.329 99.864 207.633 100.436C207.801 100.717 207.961 100.986 208.113 101.244C208.266 101.501 208.416 101.733 208.529 101.982C209.011 102.935 209.352 103.56 209.352 103.56C209.453 103.747 209.681 103.812 209.867 103.711C210.022 103.613 210.09 103.404 210.021 103.227Z" fill="#333333" stroke="#333333"/>
<path d="M153.979 48.3633C153.979 48.3633 135.047 65.1562 120.381 73.3338C127.586 71.1823 130.66 70.6005 130.66 70.6005C130.66 70.6005 150.024 54.5885 153.979 48.3633Z" fill="#ECA539"/>
<path d="M176.077 202.338C178.244 201.233 180.41 200.127 182.553 198.967C184.703 197.825 186.821 196.61 188.908 195.347C190.995 194.078 193.012 192.683 194.944 191.189C196.868 189.683 198.704 188.059 200.463 186.366C202.209 184.656 203.906 182.907 205.554 181.111C207.202 179.316 208.777 177.426 210.12 175.37C211.457 173.314 212.561 171.079 213.168 168.684C213.801 166.294 213.865 163.782 213.632 161.345C213.405 158.895 212.917 156.497 212.455 154.108C211.981 151.721 211.67 149.324 211.566 146.899C211.331 142.047 211.83 137.196 212.278 132.345C212.503 129.919 212.687 127.478 212.739 125.032C212.791 122.591 212.778 120.139 212.659 117.697C212.534 115.255 212.307 112.811 211.918 110.39C211.51 107.971 210.951 105.56 210.011 103.258L209.543 103.762L212.386 104.668L213.805 105.121L215.238 105.529L218.11 106.343L221.004 107.06C221.966 107.312 222.942 107.519 223.912 107.725C224.888 107.925 225.854 108.158 226.833 108.332L229.771 108.855C230.751 109.035 231.737 109.151 232.72 109.3L234.197 109.513L235.681 109.68C236.673 109.784 237.661 109.919 238.649 109.991L241.627 110.224L244.609 110.368C245.602 110.426 246.6 110.415 247.596 110.435L249.091 110.456L250.581 110.427C252.573 110.41 254.562 110.305 256.543 110.182L259.517 109.94L262.484 109.616L265.442 109.205L268.385 108.712L271.314 108.145L274.229 107.496L277.124 106.768C278.083 106.494 279.045 106.239 279.997 105.953C287.648 103.642 295.044 100.552 301.945 96.5669C302.125 96.4664 302.19 96.2316 302.083 96.0521C302.052 95.9981 302.003 95.9523 301.956 95.9191C299.897 94.636 297.822 93.38 295.708 92.1848C294.649 91.5938 293.595 90.9896 292.52 90.4319C291.45 89.8548 290.375 89.2971 289.29 88.7595C287.129 87.6641 284.92 86.6498 282.707 85.6612C280.479 84.7059 278.24 83.7707 275.96 82.9347C266.874 79.5304 257.403 77.1539 247.777 75.9407C238.157 74.7144 228.387 74.6507 218.748 75.7597C213.932 76.3138 209.146 77.1693 204.434 78.3217C202.082 78.907 199.744 79.5608 197.434 80.313C195.125 81.0716 192.846 81.8841 190.608 82.9019L191.018 82.9558C189.975 82.0904 188.899 81.33 187.794 80.5915C186.689 79.8592 185.55 79.1747 184.403 78.5229C183.255 77.8648 182.08 77.26 180.889 76.676C179.704 76.0913 178.492 75.5538 177.276 75.0357C176.054 74.5245 174.822 74.0459 173.582 73.6C172.335 73.161 171.084 72.7352 169.813 72.3621C169.185 72.1589 168.547 71.9884 167.904 71.8185C167.267 71.648 166.628 71.4649 165.987 71.3201L164.056 70.8676L162.111 70.4671C161.465 70.3292 160.81 70.2366 160.159 70.1181C159.509 70.006 158.858 69.8939 158.205 69.8138L156.242 69.5483L154.273 69.3468C152.962 69.2061 151.639 69.1425 150.321 69.0532C149.001 69.021 147.682 68.9317 146.363 68.9567L144.382 68.9593L142.402 69.0253C141.083 69.0565 139.766 69.17 138.446 69.2584C137.125 69.3404 135.822 69.5286 134.506 69.6546C133.193 69.8183 131.892 70.0253 130.588 70.2072L130.889 70.8744C136.176 66.5064 141.444 62.0768 146.328 57.223C147.554 56.0153 148.745 54.7731 149.922 53.5197C151.086 52.2549 152.235 50.9726 153.35 49.662C155.579 47.0346 157.683 44.3055 159.645 41.4767C161.606 38.6479 163.432 35.7187 165.103 32.7098L166.336 30.4361L167.509 28.1368C168.258 26.5841 169 25.0319 169.689 23.4535C170.047 22.6692 170.365 21.87 170.697 21.0757C171.034 20.2808 171.353 19.4816 171.658 18.6773C172.294 17.0787 172.858 15.4494 173.435 13.8252C173.966 12.1865 174.524 10.5578 174.996 8.89972C175.508 7.25665 175.934 5.5841 176.394 3.92724C176.45 3.72508 176.334 3.52109 176.132 3.46529C176.074 3.45213 176.017 3.44525 175.967 3.45656L175.961 3.45719C170.867 4.40068 165.951 6.03654 161.172 7.9693C156.401 9.92025 151.781 12.2302 147.328 14.8277C138.422 20.0163 130.184 26.3679 122.944 33.7161C119.327 37.3899 115.95 41.3059 112.888 45.4629C109.825 49.6136 107.044 53.9833 104.63 58.5443C99.7632 67.6513 96.2923 77.4929 94.2481 87.6159L94.3043 87.4834C93.561 88.5854 92.6572 89.6021 91.8111 90.6891C90.9581 91.7705 90.1759 92.9271 89.5273 94.1527C88.2043 96.6003 87.4039 99.2743 86.7877 101.955C86.1784 104.642 85.846 107.376 85.4647 110.065C85.0778 112.761 84.6333 115.45 84.1499 118.13C83.1769 123.491 81.9914 128.816 80.4138 134.016C79.6183 136.613 78.712 139.178 77.5989 141.636C76.4375 144.118 75.4824 146.763 75.0823 149.517C74.6692 152.266 74.8073 155.087 75.352 157.797C75.9035 160.512 76.8496 163.125 78.018 165.62C79.1802 168.115 80.589 170.485 82.1093 172.767C83.6359 175.048 85.2864 177.241 87.0296 179.348C87.9012 180.402 88.7853 181.455 89.6976 182.472C90.1603 182.984 90.5911 183.492 91.0795 184.008L92.5052 185.475L95.3509 188.416C96.3033 189.392 97.2851 190.346 98.2612 191.307C99.2311 192.268 100.212 193.216 101.223 194.141C102.227 195.067 103.203 196.022 104.247 196.906C106.289 198.717 108.396 200.471 110.67 202.011C110.731 202.05 110.812 202.035 110.85 201.974C110.888 201.913 110.874 201.839 110.819 201.793L110.812 201.788C110.272 201.392 109.736 200.964 109.217 200.528C108.693 200.092 108.174 199.656 107.672 199.193C106.64 198.308 105.643 197.387 104.644 196.454C103.641 195.54 102.666 194.586 101.679 193.645C100.687 192.711 99.7237 191.756 98.7657 190.787C97.8084 189.824 96.8272 188.876 95.8749 187.901L93.0291 184.959L91.6091 183.485C91.1558 183.004 90.7043 182.479 90.2554 181.979C89.35 180.967 88.4734 179.926 87.6143 178.871C85.885 176.775 84.2551 174.599 82.7499 172.341C81.2509 170.082 79.8639 167.742 78.725 165.289C77.5804 162.842 76.6588 160.284 76.1274 157.643C75.6029 155.007 75.4685 152.287 75.8724 149.634C76.2631 146.976 77.1776 144.43 78.3352 141.974C79.4752 139.469 80.3909 136.872 81.2033 134.254C82.8016 129.007 84.0039 123.661 84.9876 118.28C85.4822 115.586 85.9136 112.893 86.2986 110.178C86.6718 107.471 86.9948 104.769 87.5834 102.129C88.179 99.4943 88.9537 96.88 90.2223 94.5204C90.8434 93.3355 91.5918 92.2203 92.4216 91.1604C93.2445 90.0947 94.1533 89.0648 94.9349 87.9019C94.9624 87.8611 94.9774 87.8216 94.9918 87.7757L94.9911 87.7695C97.0236 77.7174 100.47 67.948 105.299 58.9019C107.697 54.3742 110.463 50.0378 113.503 45.9147C116.542 41.7853 119.898 37.9032 123.491 34.2508C130.685 26.9516 138.871 20.6433 147.717 15.4861C152.14 12.9106 156.731 10.6163 161.471 8.67481C166.206 6.75274 171.093 5.13259 176.105 4.20357L175.672 3.73352C175.218 5.38347 174.79 7.04346 174.284 8.67963C173.811 10.3252 173.259 11.9469 172.733 13.5787C172.161 15.1898 171.603 16.8122 170.965 18.3982C170.667 19.2018 170.348 19.9948 170.009 20.7834C169.677 21.5714 169.365 22.37 169.007 23.148C168.324 24.7195 167.587 26.2648 166.843 27.8043L165.675 30.0905L164.452 32.344C162.792 35.3328 160.983 38.2413 159.032 41.05C157.081 43.8588 154.994 46.5734 152.782 49.1801C151.673 50.4838 150.536 51.7585 149.378 53.0164C148.207 54.263 147.021 55.4982 145.807 56.6983C140.952 61.5239 135.707 65.9384 130.414 70.3008C130.25 70.4315 130.23 70.6744 130.366 70.8319C130.452 70.9374 130.583 70.9813 130.709 70.9687L130.715 70.968C132.013 70.7868 133.308 70.5804 134.608 70.418C135.911 70.2932 137.209 70.1057 138.517 70.0248C139.823 69.9315 141.128 69.8192 142.435 69.7893L144.395 69.7189L146.357 69.7182C147.664 69.6945 148.977 69.7844 150.283 69.8116C151.589 69.9021 152.898 69.9607 154.197 70.1027L156.154 70.3054L158.098 70.5728C158.745 70.6535 159.395 70.7594 160.039 70.8784C160.684 70.9975 161.332 71.0845 161.972 71.223L163.898 71.6191L165.809 72.0673C166.45 72.212 167.076 72.3901 167.707 72.5613C168.338 72.7324 168.968 72.9036 169.596 73.1005C170.854 73.4685 172.092 73.8893 173.325 74.3233C174.559 74.7635 175.778 75.2434 176.986 75.7433C178.189 76.2563 179.382 76.7895 180.56 77.3685C181.732 77.9482 182.899 78.5473 184.034 79.1941C185.168 79.841 186.293 80.5142 187.378 81.2357C188.463 81.9573 189.539 82.7177 190.52 83.5385C190.638 83.6408 190.797 83.6564 190.93 83.5924C193.097 82.6135 195.38 81.7878 197.666 81.0443C199.957 80.3002 202.277 79.6484 204.617 79.0706C209.297 77.9213 214.046 77.0696 218.838 76.5243C228.414 75.4216 238.12 75.4853 247.683 76.7048C257.246 77.918 266.664 80.2744 275.698 83.6586C277.964 84.4896 280.19 85.4198 282.405 86.3701C284.611 87.353 286.8 88.3567 288.954 89.4464C290.032 89.9783 291.107 90.536 292.164 91.1082C293.233 91.6665 294.28 92.265 295.339 92.8497C297.438 94.0336 299.506 95.284 301.552 96.5621L301.563 95.9142C294.715 99.8622 287.368 102.935 279.8 105.192C278.854 105.478 277.899 105.732 276.945 105.999L274.07 106.726L271.174 107.373L268.263 107.938L265.338 108.422L262.399 108.832L259.451 109.154L256.495 109.394C254.52 109.517 252.551 109.626 250.572 109.641L249.088 109.67L247.605 109.648C246.616 109.627 245.63 109.637 244.643 109.578L241.681 109.438L238.722 109.21C237.734 109.138 236.758 109.001 235.774 108.904L234.303 108.741L232.832 108.528C231.855 108.379 230.869 108.262 229.902 108.087L226.984 107.569C226.011 107.394 225.046 107.168 224.076 106.967C223.107 106.766 222.143 106.559 221.182 106.307L218.301 105.595L215.448 104.785L214.021 104.377L212.609 103.923L209.785 103.021C209.582 102.959 209.372 103.069 209.309 103.265C209.28 103.351 209.289 103.439 209.316 103.518L209.316 103.525C210.241 105.733 210.808 108.099 211.231 110.478C211.629 112.867 211.878 115.283 212.021 117.704C212.157 120.131 212.192 122.556 212.146 124.99C212.105 127.416 211.925 129.837 211.708 132.269C211.271 137.113 210.782 142 211.034 146.902C211.148 149.351 211.476 151.797 211.957 154.184C212.425 156.572 212.912 158.964 213.147 161.369C213.377 163.774 213.319 166.215 212.711 168.546C212.124 170.882 211.054 173.076 209.739 175.104C208.418 177.133 206.879 179.006 205.231 180.795C203.561 182.561 201.884 184.321 200.093 185.96C198.303 187.598 196.455 189.166 194.513 190.617C192.585 192.079 190.575 193.429 188.515 194.708C186.462 195.999 184.348 197.194 182.251 198.42C180.139 199.628 178.027 200.842 175.93 202.068C175.858 202.107 175.835 202.198 175.88 202.263C175.926 202.347 176.011 202.37 176.077 202.338Z" fill="#333333" stroke="#333333"/>
<path d="M113.949 76.2575C113.949 76.2575 114.977 75.8497 116.516 75.2321C116.898 75.0731 117.327 74.9348 117.765 74.7576C118.21 74.5861 118.673 74.4127 119.154 74.2248C119.643 74.0551 120.145 73.8842 120.658 73.6994C121.164 73.509 121.683 73.3237 122.212 73.169C122.739 73.0019 123.261 72.8416 123.776 72.6819C124.29 72.5097 124.809 72.3878 125.302 72.2495C125.801 72.1168 126.281 71.9861 126.737 71.8641C127.193 71.7359 127.625 71.629 128.029 71.5567C129.64 71.2171 130.716 70.9757 130.716 70.9757L130.747 70.9662C130.951 70.9203 131.076 70.7175 131.03 70.5129C130.985 70.3145 130.796 70.1941 130.602 70.2199C130.602 70.2199 129.5 70.3942 127.846 70.6873C127.429 70.7546 126.99 70.8558 126.529 70.9847C126.066 71.101 125.572 71.2267 125.067 71.36C124.561 71.487 124.03 71.6165 123.517 71.8075C122.997 71.9804 122.464 72.1545 121.938 72.3342C121.404 72.502 120.886 72.6999 120.368 72.8979C119.856 73.0889 119.352 73.2981 118.872 73.4923C118.393 73.7053 117.933 73.9101 117.497 74.1061C117.061 74.2958 116.651 74.5019 116.285 74.6973C115.912 74.8933 115.575 75.0667 115.275 75.23C114.982 75.399 114.726 75.5516 114.516 75.6741C114.092 75.9197 113.867 76.0755 113.868 76.0818C113.82 76.1119 113.808 76.1766 113.838 76.2243C113.853 76.2544 113.905 76.2682 113.949 76.2575Z" fill="#333333" stroke="#333333"/>
<path d="M185.968 262.801C185.968 262.801 204.213 258.239 200.1 245.653C195.938 253.092 193.285 256.852 185.968 262.801Z" fill="#ECA539"/>
<path d="M162.63 216.151C162.63 216.151 162.532 216.25 162.337 216.447C162.141 216.638 161.86 216.932 161.501 217.324C160.769 218.095 159.734 219.251 158.477 220.786C157.206 222.302 155.754 224.224 154.179 226.494C152.61 228.763 150.926 231.393 149.276 234.368C147.627 237.343 145.979 240.653 144.621 244.322C144.31 245.254 143.999 246.192 143.677 247.144C143.375 248.1 143.105 249.065 142.818 250.052C142.263 252.016 141.719 254.03 141.218 256.097C140.716 258.158 140.246 260.272 139.861 262.429C139.497 264.596 139.148 266.787 139.21 269.102C139.25 269.687 139.277 270.268 139.552 270.925C139.88 271.799 140.985 271.897 141.602 271.683C141.927 271.58 142.215 271.418 142.433 271.32C142.534 271.259 142.661 271.259 142.533 271.253C142.52 271.242 142.443 271.237 142.414 271.202C142.38 271.18 142.36 271.169 142.351 271.138C142.286 270.999 142.343 271.126 142.335 271.108L142.353 271.157C142.369 271.194 142.379 271.224 142.373 271.231L142.416 271.538L142.464 271.945L142.548 272.786C142.612 273.357 142.689 273.932 142.843 274.526C142.918 274.823 143.024 275.123 143.168 275.425C143.343 275.718 143.523 276.055 143.93 276.268L143.998 276.312C144.018 276.323 144.11 276.364 144.09 276.353L144.189 276.388C144.254 276.413 144.314 276.439 144.424 276.459C144.638 276.514 144.81 276.522 144.987 276.523C145.335 276.52 145.657 276.449 145.958 276.368C146.543 276.202 147.081 275.951 147.476 275.918C147.664 275.905 147.731 275.936 147.83 276.041C147.915 276.127 148.033 276.363 148.12 276.595C148.301 277.077 148.408 277.631 148.677 278.232C148.749 278.383 148.828 278.54 148.958 278.704C149.03 278.786 149.088 278.863 149.197 278.94L149.272 278.996C149.333 279.028 149.247 278.999 149.42 279.077L149.518 279.111C149.538 279.115 149.544 279.121 149.571 279.131L149.693 279.15C149.776 279.161 149.859 279.165 149.941 279.164C150.053 279.146 150.165 279.122 150.263 279.093C150.446 279.03 150.603 278.951 150.74 278.868C151.277 278.541 151.717 278.135 152.096 277.945C152.174 277.899 152.257 277.903 152.18 277.898C152.173 277.893 152.136 277.897 152.121 277.879L152.065 277.821L152.101 277.862C152.177 277.93 152.145 277.927 152.145 277.927C152.207 278.042 152.266 278.308 152.311 278.57C152.358 278.844 152.4 279.144 152.516 279.475C152.624 279.794 152.874 280.207 153.299 280.398C153.437 280.454 153.364 280.424 153.41 280.438L153.462 280.452C153.507 280.46 153.508 280.472 153.585 280.484C153.714 280.503 153.88 280.518 153.966 280.496C154.179 280.475 154.357 280.413 154.514 280.346C154.829 280.206 155.079 280.042 155.311 279.898C155.543 279.748 155.769 279.611 155.946 279.542C156.031 279.509 156.1 279.502 156.113 279.507L156.119 279.506C156.1 279.502 156.171 279.52 156.079 279.485L156.172 279.526C156.245 279.557 156.195 279.562 156.22 279.566C156.492 279.817 156.76 280.336 157.049 280.82C157.2 281.065 157.352 281.322 157.62 281.593C157.759 281.719 157.94 281.878 158.266 281.915C158.317 281.917 158.449 281.91 158.529 281.889C158.597 281.869 158.633 281.853 158.682 281.835C158.774 281.801 158.846 281.762 158.918 281.729C159.47 281.426 159.892 281.099 160.347 280.774C160.788 280.444 161.224 280.121 161.659 279.792C163.395 278.495 165.13 277.249 166.974 276.328C168.871 275.37 170.738 274.497 172.479 273.377C173.355 272.839 174.241 272.338 175.078 271.784C175.893 271.208 176.703 270.644 177.501 270.082C178.291 269.515 179.099 268.989 179.844 268.407C180.582 267.813 181.301 267.227 182.015 266.654C183.424 265.498 184.86 264.422 186.085 263.265C188.626 261.037 190.822 258.781 192.66 256.732C194.475 254.647 195.988 252.77 197.073 251.101C197.354 250.692 197.613 250.305 197.861 249.937C198.088 249.559 198.299 249.202 198.5 248.871C198.895 248.21 199.225 247.644 199.455 247.164C199.929 246.216 200.181 245.709 200.181 245.709C200.203 245.669 200.185 245.62 200.145 245.599C200.105 245.577 200.062 245.594 200.034 245.629L200.029 245.636C200.029 245.636 199.735 246.115 199.187 247.02C198.929 247.477 198.56 248.015 198.123 248.643C197.908 248.956 197.682 249.296 197.434 249.663C197.172 250.013 196.893 250.383 196.598 250.781C196.302 251.172 195.996 251.59 195.659 252.017C195.315 252.432 194.954 252.874 194.576 253.33C193.854 254.265 192.967 255.198 192.071 256.227C190.183 258.217 188.071 260.427 185.51 262.644C184.272 263.802 182.877 264.837 181.461 265.987C180.752 266.553 180.032 267.133 179.301 267.72C178.561 268.295 177.758 268.807 176.98 269.367C176.187 269.916 175.389 270.479 174.579 271.042C173.754 271.582 172.885 272.068 172.027 272.592C170.339 273.675 168.435 274.558 166.555 275.501C164.608 276.465 162.838 277.74 161.083 279.032C160.216 279.665 159.321 280.389 158.465 280.874C158.417 280.898 158.362 280.923 158.326 280.939L158.284 280.956C158.301 280.942 158.366 280.954 158.347 280.962C158.394 280.983 158.335 280.964 158.279 280.906C158.153 280.785 158.01 280.565 157.88 280.343C157.594 279.89 157.397 279.371 156.857 278.848C156.767 278.775 156.618 278.676 156.565 278.656L156.473 278.614C156.347 278.564 156.381 278.586 156.329 278.572L156.233 278.556C155.969 278.519 155.76 278.578 155.589 278.64C155.248 278.769 155.006 278.94 154.761 279.085C154.311 279.396 153.82 279.61 153.696 279.509C153.603 279.461 153.524 279.368 153.447 279.166C153.376 278.964 153.337 278.708 153.29 278.427C153.236 278.141 153.213 277.845 153.015 277.453C152.945 277.327 152.844 277.204 152.81 277.182L152.775 277.141C152.677 277.05 152.679 277.075 152.625 277.036C152.545 276.993 152.451 276.945 152.374 276.934C152.297 276.923 152.215 276.918 152.132 276.92C152.057 276.922 152.008 276.939 151.946 276.952C151.816 276.978 151.744 277.023 151.653 277.057C151.034 277.386 150.648 277.767 150.211 278.014C150.11 278.075 150.013 278.116 149.928 278.15C149.891 278.16 149.859 278.164 149.835 278.172C149.847 278.165 149.86 278.17 149.873 278.175C149.88 278.181 149.887 278.186 149.888 278.192C149.881 278.193 149.855 278.183 149.842 278.178C149.792 278.183 149.684 278.054 149.586 277.836C149.391 277.405 149.277 276.84 149.067 276.265C148.949 275.972 148.85 275.678 148.55 275.34C148.466 275.254 148.348 275.151 148.308 275.13L148.219 275.069C148.099 274.999 148.14 275.033 148.093 275.006L148.014 274.976C147.796 274.89 147.575 274.887 147.386 274.899C146.655 274.986 146.162 275.251 145.663 275.383C145.417 275.453 145.187 275.495 144.973 275.504C144.865 275.502 144.763 275.493 144.699 275.48C144.673 275.483 144.601 275.458 144.536 275.433L144.437 275.399C144.385 275.379 144.45 275.404 144.437 275.399L144.417 275.382C144.184 275.272 143.951 274.776 143.832 274.287C143.699 273.786 143.626 273.248 143.564 272.697L143.474 271.862L143.424 271.43C143.403 271.28 143.389 271.142 143.327 270.907C143.315 270.845 143.299 270.808 143.29 270.784L143.272 270.735C143.248 270.687 143.302 270.776 143.209 270.614C143.15 270.532 143.093 270.461 143.004 270.394C142.909 270.334 142.776 270.271 142.694 270.267C142.286 270.238 142.14 270.367 141.994 270.42C141.71 270.556 141.507 270.672 141.298 270.737C141.109 270.807 140.894 270.803 140.783 270.776C140.771 270.784 140.692 270.747 140.632 270.721L140.54 270.68C140.613 270.717 140.559 270.684 140.579 270.695C140.565 270.684 140.515 270.625 140.481 270.534C140.317 270.163 140.261 269.605 140.228 269.088C140.164 266.951 140.494 264.756 140.85 262.634C141.218 260.504 141.678 258.41 142.175 256.362C142.671 254.315 143.203 252.309 143.753 250.351C144.028 249.378 144.297 248.4 144.594 247.457C144.905 246.519 145.211 245.594 145.511 244.683C146.837 241.068 148.456 237.792 150.077 234.845C151.704 231.898 153.359 229.284 154.91 227.029C156.44 224.757 157.854 222.833 159.017 221.245C160.186 219.663 161.139 218.444 161.783 217.606C162.433 216.78 162.787 216.332 162.787 216.332C162.826 216.283 162.82 216.214 162.771 216.175C162.733 216.109 162.67 216.115 162.63 216.151Z" fill="#333333" stroke="#333333"/>
</g>
</svg>
